# Blender 4.5.3 LTS
# www.blender.org
mtllib pickme.mtl
o Cube
v -0.375000 -0.500000 0.375000
v -0.375000 0.500000 0.375000
v -0.375000 -0.500000 -0.375000
v -0.375000 0.500000 -0.375000
v 0.375000 -0.500000 0.375000
v 0.375000 0.500000 0.375000
v 0.375000 -0.500000 -0.375000
v 0.375000 0.500000 -0.375000
vn -1.0000 -0.0000 -0.0000
vn -0.0000 -0.0000 -1.0000
vn 1.0000 -0.0000 -0.0000
vn -0.0000 -0.0000 1.0000
vn -0.0000 -1.0000 -0.0000
vn -0.0000 1.0000 -0.0000
vt 0.000000 0.000000
vt 0.250000 0.000000
vt 0.250000 0.250000
vt 0.000000 0.250000
vt 1.000000 0.000000
vt 1.000000 1.000000
vt 0.000000 1.000000
vt 0.250000 0.250000
vt 0.000000 0.250000
vt 0.250000 0.250000
vt 0.000000 0.250000
s 0
usemtl Material.002
f 1/1/1 2/2/1 4/3/1 3/4/1
f 3/1/2 4/2/2 8/3/2 7/4/2
f 7/5/3 8/6/3 6/7/3 5/1/3
f 5/1/4 6/2/4 2/8/4 1/9/4
f 3/1/5 7/2/5 5/10/5 1/11/5
f 8/1/6 4/2/6 2/10/6 6/11/6
