# Blender 5.1.2
# www.blender.org
mtllib cube-ball.mtl
o Cube
v 1.000000 1.000000 -1.000000
v 1.000000 -1.000000 -1.000000
v 1.000000 1.000000 1.000000
v 1.000000 -1.000000 1.000000
v -1.000000 1.000000 -1.000000
v -1.000000 -1.000000 -1.000000
v -1.000000 1.000000 1.000000
v -1.000000 -1.000000 1.000000
vn -0.0000 1.0000 -0.0000
vn -0.0000 -0.0000 1.0000
vn -1.0000 -0.0000 -0.0000
vn -0.0000 -1.0000 -0.0000
vn 1.0000 -0.0000 -0.0000
vn -0.0000 -0.0000 -1.0000
vt 0.625000 0.500000
vt 0.875000 0.500000
vt 0.875000 0.750000
vt 0.625000 0.750000
vt 0.375000 0.750000
vt 0.625000 1.000000
vt 0.375000 1.000000
vt 0.375000 0.000000
vt 0.625000 0.000000
vt 0.625000 0.250000
vt 0.375000 0.250000
vt 0.125000 0.500000
vt 0.375000 0.500000
vt 0.125000 0.750000
s 0
usemtl Material
f 1/1/1 5/2/1 7/3/1 3/4/1
f 4/5/2 3/4/2 7/6/2 8/7/2
f 8/8/3 7/9/3 5/10/3 6/11/3
f 6/12/4 2/13/4 4/5/4 8/14/4
f 2/13/5 1/1/5 3/4/5 4/5/5
f 6/11/6 5/10/6 1/1/6 2/13/6
o Sphere
v 1.000000 2.000000 1.000000
v 1.000000 1.831470 0.444430
v 1.000000 1.555570 0.168530
v 1.000000 1.195090 0.019215
v 1.000000 1.000000 0.000000
v 1.000000 0.804910 0.019215
v 1.000000 0.444430 0.168530
v 1.000000 0.000000 1.000000
v 1.038060 1.980785 0.808658
v 1.074658 1.923880 0.624670
v 1.108386 1.831470 0.455105
v 1.137950 1.707107 0.306480
v 1.162212 1.555570 0.184507
v 1.180240 1.382684 0.093873
v 1.191342 1.195090 0.038060
v 1.195090 1.000000 0.019215
v 1.191342 0.804910 0.038060
v 1.180240 0.617317 0.093873
v 1.162212 0.444430 0.184507
v 1.137950 0.292893 0.306480
v 1.108386 0.168530 0.455105
v 1.074658 0.076120 0.624670
v 1.038060 0.019215 0.808658
v 1.074658 1.980785 0.819760
v 1.146447 1.923880 0.646447
v 1.212608 1.831470 0.486720
v 1.270598 1.707107 0.346719
v 1.318190 1.555570 0.231822
v 1.353553 1.382684 0.146447
v 1.375330 1.195090 0.093873
v 1.382683 1.000000 0.076121
v 1.375330 0.804910 0.093873
v 1.353553 0.617317 0.146447
v 1.318190 0.444430 0.231822
v 1.270598 0.292893 0.346719
v 1.212608 0.168530 0.486720
v 1.146447 0.076120 0.646447
v 1.074658 0.019215 0.819760
v 1.108386 1.980785 0.837788
v 1.212608 1.923880 0.681810
v 1.308658 1.831470 0.538060
v 1.392848 1.707107 0.412062
v 1.461940 1.555570 0.308658
v 1.513280 1.382684 0.231822
v 1.544895 1.195090 0.184507
v 1.555570 1.000000 0.168531
v 1.544895 0.804910 0.184507
v 1.513280 0.617317 0.231822
v 1.461940 0.444430 0.308658
v 1.392848 0.292893 0.412062
v 1.308658 0.168530 0.538060
v 1.212608 0.076120 0.681810
v 1.108386 0.019215 0.837788
v 1.137950 1.980785 0.862050
v 1.270598 1.923880 0.729402
v 1.392847 1.831470 0.607153
v 1.500000 1.707107 0.500000
v 1.587938 1.555570 0.412062
v 1.653281 1.382684 0.346719
v 1.693520 1.195090 0.306480
v 1.707107 1.000000 0.292893
v 1.693520 0.804910 0.306480
v 1.653281 0.617317 0.346719
v 1.587938 0.444430 0.412062
v 1.500000 0.292893 0.500000
v 1.392847 0.168530 0.607153
v 1.270598 0.076120 0.729402
v 1.137950 0.019215 0.862050
v 1.162212 1.980785 0.891614
v 1.318190 1.923880 0.787392
v 1.461940 1.831470 0.691342
v 1.587938 1.707107 0.607153
v 1.691342 1.555570 0.538060
v 1.768178 1.382684 0.486720
v 1.815493 1.195090 0.455105
v 1.831470 1.000000 0.444430
v 1.815493 0.804910 0.455105
v 1.768178 0.617317 0.486720
v 1.691342 0.444430 0.538060
v 1.587938 0.292893 0.607153
v 1.461940 0.168530 0.691342
v 1.318190 0.076120 0.787392
v 1.162212 0.019215 0.891614
v 1.180240 1.980785 0.925342
v 1.353553 1.923880 0.853553
v 1.513280 1.831470 0.787393
v 1.653281 1.707107 0.729402
v 1.768178 1.555570 0.681810
v 1.853553 1.382684 0.646447
v 1.906127 1.195090 0.624670
v 1.923879 1.000000 0.617317
v 1.906127 0.804910 0.624670
v 1.853553 0.617317 0.646447
v 1.768178 0.444430 0.681810
v 1.653281 0.292893 0.729402
v 1.513280 0.168530 0.787393
v 1.353553 0.076120 0.853553
v 1.180240 0.019215 0.925342
v 1.191342 1.980785 0.961940
v 1.375330 1.923880 0.925342
v 1.544895 1.831470 0.891614
v 1.693520 1.707107 0.862050
v 1.815493 1.555570 0.837788
v 1.906127 1.382684 0.819760
v 1.961940 1.195090 0.808658
v 1.980785 1.000000 0.804910
v 1.961940 0.804910 0.808658
v 1.906127 0.617317 0.819760
v 1.815493 0.444430 0.837788
v 1.693520 0.292893 0.862050
v 1.544895 0.168530 0.891614
v 1.375330 0.076120 0.925342
v 1.191342 0.019215 0.961940
v 1.195090 1.980785 1.000000
v 1.382683 1.923880 1.000000
v 1.555570 1.831470 1.000000
v 1.707107 1.707107 1.000000
v 1.831469 1.555570 1.000000
v 1.923879 1.382684 1.000000
v 1.980785 1.195090 1.000000
v 2.000000 1.000000 1.000000
v 1.980785 0.804910 1.000000
v 1.923879 0.617317 1.000000
v 1.831469 0.444430 1.000000
v 1.707107 0.292893 1.000000
v 1.555570 0.168530 1.000000
v 1.382683 0.076120 1.000000
v 1.195090 0.019215 1.000000
v 1.191342 1.980785 1.038060
v 1.375330 1.923880 1.074658
v 1.544895 1.831470 1.108386
v 1.693520 1.707107 1.137950
v 1.815493 1.555570 1.162212
v 1.906127 1.382684 1.180240
v 1.961940 1.195090 1.191342
v 1.980785 1.000000 1.195090
v 1.961940 0.804910 1.191342
v 1.906127 0.617317 1.180240
v 1.815493 0.444430 1.162212
v 1.693520 0.292893 1.137950
v 1.544895 0.168530 1.108386
v 1.375330 0.076120 1.074658
v 1.191342 0.019215 1.038060
v 1.180240 1.980785 1.074658
v 1.353553 1.923880 1.146447
v 1.513280 1.831470 1.212608
v 1.653281 1.707107 1.270598
v 1.768178 1.555570 1.318190
v 1.853553 1.382684 1.353553
v 1.906127 1.195090 1.375330
v 1.923879 1.000000 1.382684
v 1.906127 0.804910 1.375330
v 1.853553 0.617317 1.353553
v 1.768178 0.444430 1.318190
v 1.653281 0.292893 1.270598
v 1.513280 0.168530 1.212608
v 1.353553 0.076120 1.146447
v 1.180240 0.019215 1.074658
v 1.162212 1.980785 1.108386
v 1.318190 1.923880 1.212608
v 1.461940 1.831470 1.308658
v 1.587938 1.707107 1.392847
v 1.691341 1.555570 1.461940
v 1.768178 1.382684 1.513280
v 1.815493 1.195090 1.544895
v 1.831469 1.000000 1.555570
v 1.815493 0.804910 1.544895
v 1.768178 0.617317 1.513280
v 1.691341 0.444430 1.461940
v 1.587938 0.292893 1.392847
v 1.461940 0.168530 1.308658
v 1.318190 0.076120 1.212608
v 1.162212 0.019215 1.108386
v 1.137950 1.980785 1.137950
v 1.270598 1.923880 1.270598
v 1.392847 1.831470 1.392847
v 1.500000 1.707107 1.500000
v 1.587938 1.555570 1.587938
v 1.653281 1.382684 1.653281
v 1.693520 1.195090 1.693520
v 1.707106 1.000000 1.707107
v 1.693520 0.804910 1.693520
v 1.653281 0.617317 1.653281
v 1.587938 0.444430 1.587938
v 1.500000 0.292893 1.500000
v 1.392847 0.168530 1.392847
v 1.270598 0.076120 1.270598
v 1.137950 0.019215 1.137950
v 1.108386 1.980785 1.162212
v 1.212607 1.923880 1.318190
v 1.308658 1.831470 1.461940
v 1.392847 1.707107 1.587938
v 1.461940 1.555570 1.691342
v 1.513280 1.382684 1.768178
v 1.544895 1.195090 1.815493
v 1.555570 1.000000 1.831469
v 1.544895 0.804910 1.815493
v 1.513280 0.617317 1.768178
v 1.461940 0.444430 1.691342
v 1.392847 0.292893 1.587938
v 1.308658 0.168530 1.461940
v 1.212607 0.076120 1.318190
v 1.108386 0.019215 1.162212
v 1.074658 1.980785 1.180240
v 1.146446 1.923880 1.353553
v 1.212607 1.831470 1.513280
v 1.270598 1.707107 1.653281
v 1.318189 1.555570 1.768178
v 1.353553 1.382684 1.853553
v 1.375330 1.195090 1.906127
v 1.382683 1.000000 1.923879
v 1.375330 0.804910 1.906127
v 1.353553 0.617317 1.853553
v 1.318189 0.444430 1.768178
v 1.270598 0.292893 1.653281
v 1.212607 0.168530 1.513280
v 1.146446 0.076120 1.353553
v 1.074658 0.019215 1.180240
v 1.038060 1.980785 1.191342
v 1.074658 1.923880 1.375330
v 1.108386 1.831470 1.544895
v 1.137950 1.707107 1.693520
v 1.162212 1.555570 1.815493
v 1.180240 1.382684 1.906127
v 1.191342 1.195090 1.961939
v 1.195090 1.000000 1.980785
v 1.191342 0.804910 1.961939
v 1.180240 0.617317 1.906127
v 1.162212 0.444430 1.815493
v 1.137950 0.292893 1.693520
v 1.108386 0.168530 1.544895
v 1.074658 0.076120 1.375330
v 1.038060 0.019215 1.191342
v 1.000000 1.980785 1.195090
v 1.000000 1.923880 1.382683
v 1.000000 1.831470 1.555570
v 1.000000 1.707107 1.707107
v 1.000000 1.555570 1.831469
v 1.000000 1.382684 1.923879
v 1.000000 1.195090 1.980785
v 1.000000 1.000000 1.999999
v 1.000000 0.804910 1.980785
v 1.000000 0.617317 1.923879
v 1.000000 0.444430 1.831469
v 1.000000 0.292893 1.707107
v 1.000000 0.168530 1.555570
v 1.000000 0.076120 1.382683
v 1.000000 0.019215 1.195090
v 0.961940 1.980785 1.191342
v 0.925342 1.923880 1.375330
v 0.891614 1.831470 1.544895
v 0.862050 1.707107 1.693520
v 0.837788 1.555570 1.815493
v 0.819760 1.382684 1.906127
v 0.808658 1.195090 1.961939
v 0.804909 1.000000 1.980785
v 0.808658 0.804910 1.961939
v 0.819760 0.617317 1.906127
v 0.837788 0.444430 1.815493
v 0.862050 0.292893 1.693520
v 0.891614 0.168530 1.544895
v 0.925342 0.076120 1.375330
v 0.961940 0.019215 1.191342
v 0.925342 1.980785 1.180240
v 0.853553 1.923880 1.353553
v 0.787392 1.831470 1.513280
v 0.729402 1.707107 1.653281
v 0.681810 1.555570 1.768177
v 0.646447 1.382684 1.853553
v 0.624670 1.195090 1.906127
v 0.617316 1.000000 1.923879
v 0.624670 0.804910 1.906127
v 0.646447 0.617317 1.853553
v 0.681810 0.444430 1.768177
v 0.729402 0.292893 1.653281
v 0.787392 0.168530 1.513280
v 0.853553 0.076120 1.353553
v 0.925342 0.019215 1.180240
v 0.891614 1.980785 1.162212
v 0.787392 1.923880 1.318190
v 0.691342 1.831470 1.461939
v 0.607153 1.707107 1.587938
v 0.538060 1.555570 1.691341
v 0.486720 1.382684 1.768178
v 0.455105 1.195090 1.815493
v 0.444430 1.000000 1.831469
v 0.455105 0.804910 1.815493
v 0.486720 0.617317 1.768178
v 0.538060 0.444430 1.691341
v 0.607153 0.292893 1.587938
v 0.691342 0.168530 1.461939
v 0.787392 0.076120 1.318190
v 0.891614 0.019215 1.162212
v 0.862050 1.980785 1.137950
v 0.729402 1.923880 1.270598
v 0.607153 1.831470 1.392847
v 0.500000 1.707107 1.500000
v 0.412062 1.555570 1.587937
v 0.346719 1.382684 1.653281
v 0.306480 1.195090 1.693520
v 0.292894 1.000000 1.707106
v 0.306480 0.804910 1.693520
v 0.346719 0.617317 1.653281
v 0.412062 0.444430 1.587937
v 0.500000 0.292893 1.500000
v 0.607153 0.168530 1.392847
v 0.729402 0.076120 1.270598
v 0.862050 0.019215 1.137950
v 0.837788 1.980785 1.108386
v 0.681810 1.923880 1.212607
v 0.538060 1.831470 1.308658
v 0.412062 1.707107 1.392847
v 0.308659 1.555570 1.461939
v 0.231823 1.382684 1.513280
v 0.184507 1.195090 1.544895
v 0.168531 1.000000 1.555569
v 0.184507 0.804910 1.544895
v 0.231823 0.617317 1.513280
v 0.308659 0.444430 1.461939
v 0.412062 0.292893 1.392847
v 0.538060 0.168530 1.308658
v 0.681810 0.076120 1.212607
v 0.837788 0.019215 1.108386
v 0.819760 1.980785 1.074658
v 0.646447 1.923880 1.146446
v 0.486720 1.831470 1.212607
v 0.346719 1.707107 1.270598
v 0.231823 1.555570 1.318189
v 0.146447 1.382684 1.353553
v 0.093873 1.195090 1.375330
v 0.076121 1.000000 1.382683
v 0.093873 0.804910 1.375330
v 0.146447 0.617317 1.353553
v 0.231823 0.444430 1.318189
v 0.346719 0.292893 1.270598
v 0.486720 0.168530 1.212607
v 0.646447 0.076120 1.146446
v 0.819760 0.019215 1.074658
v 0.808658 1.980785 1.038060
v 0.624670 1.923880 1.074658
v 0.455105 1.831470 1.108386
v 0.306480 1.707107 1.137950
v 0.184507 1.555570 1.162211
v 0.093873 1.382684 1.180240
v 0.038061 1.195090 1.191341
v 0.019216 1.000000 1.195090
v 0.038061 0.804910 1.191341
v 0.093873 0.617317 1.180240
v 0.184507 0.444430 1.162211
v 0.306480 0.292893 1.137950
v 0.455105 0.168530 1.108386
v 0.624670 0.076120 1.074658
v 0.808658 0.019215 1.038060
v 0.804910 1.980785 1.000000
v 0.617317 1.923880 1.000000
v 0.444430 1.831470 1.000000
v 0.292893 1.707107 1.000000
v 0.168531 1.555570 1.000000
v 0.076121 1.382684 1.000000
v 0.019215 1.195090 1.000000
v 0.000001 1.000000 1.000000
v 0.019215 0.804910 1.000000
v 0.076121 0.617317 1.000000
v 0.168531 0.444430 1.000000
v 0.292893 0.292893 1.000000
v 0.444430 0.168530 1.000000
v 0.617317 0.076120 1.000000
v 0.804910 0.019215 1.000000
v 0.808658 1.980785 0.961940
v 0.624670 1.923880 0.925342
v 0.455105 1.831470 0.891614
v 0.306480 1.707107 0.862050
v 0.184507 1.555570 0.837788
v 0.093873 1.382684 0.819760
v 0.038061 1.195090 0.808658
v 0.019216 1.000000 0.804909
v 0.038061 0.804910 0.808658
v 0.093873 0.617317 0.819760
v 0.184507 0.444430 0.837788
v 0.306480 0.292893 0.862050
v 0.455105 0.168530 0.891614
v 0.624670 0.076120 0.925342
v 0.808658 0.019215 0.961940
v 0.819760 1.980785 0.925342
v 0.646447 1.923880 0.853553
v 0.486721 1.831470 0.787392
v 0.346719 1.707107 0.729402
v 0.231823 1.555570 0.681810
v 0.146447 1.382684 0.646447
v 0.093873 1.195090 0.624670
v 0.076122 1.000000 0.617316
v 0.093873 0.804910 0.624670
v 0.146447 0.617317 0.646447
v 0.231823 0.444430 0.681810
v 0.346719 0.292893 0.729402
v 0.486721 0.168530 0.787392
v 0.646447 0.076120 0.853553
v 0.819760 0.019215 0.925342
v 0.837788 1.980785 0.891614
v 0.681811 1.923880 0.787393
v 0.538061 1.831470 0.691342
v 0.412062 1.707107 0.607153
v 0.308659 1.555570 0.538060
v 0.231823 1.382684 0.486720
v 0.184507 1.195090 0.455105
v 0.168532 1.000000 0.444430
v 0.184507 0.804910 0.455105
v 0.231823 0.617317 0.486720
v 0.308659 0.444430 0.538060
v 0.412062 0.292893 0.607153
v 0.538061 0.168530 0.691342
v 0.681811 0.076120 0.787393
v 0.837788 0.019215 0.891614
v 0.862050 1.980785 0.862050
v 0.729402 1.923880 0.729402
v 0.607153 1.831470 0.607153
v 0.500000 1.707107 0.500000
v 0.412063 1.555570 0.412062
v 0.346719 1.382684 0.346719
v 0.306481 1.195090 0.306480
v 0.292894 1.000000 0.292894
v 0.306481 0.804910 0.306480
v 0.346719 0.617317 0.346719
v 0.412063 0.444430 0.412062
v 0.500000 0.292893 0.500000
v 0.607153 0.168530 0.607153
v 0.729402 0.076120 0.729402
v 0.862050 0.019215 0.862050
v 0.891614 1.980785 0.837788
v 0.787393 1.923880 0.681810
v 0.691342 1.831470 0.538061
v 0.607153 1.707107 0.412062
v 0.538061 1.555570 0.308659
v 0.486720 1.382684 0.231823
v 0.455105 1.195090 0.184507
v 0.444431 1.000000 0.168531
v 0.455105 0.804910 0.184507
v 0.486720 0.617317 0.231823
v 0.538061 0.444430 0.308659
v 0.607153 0.292893 0.412062
v 0.691342 0.168530 0.538061
v 0.787393 0.076120 0.681810
v 0.891614 0.019215 0.837788
v 0.925342 1.980785 0.819760
v 0.853554 1.923880 0.646447
v 0.787393 1.831470 0.486721
v 0.729402 1.707107 0.346719
v 0.681811 1.555570 0.231823
v 0.646447 1.382684 0.146447
v 0.624670 1.195090 0.093873
v 0.617317 1.000000 0.076121
v 0.624670 0.804910 0.093873
v 0.646447 0.617317 0.146447
v 0.681811 0.444430 0.231823
v 0.729402 0.292893 0.346719
v 0.787393 0.168530 0.486721
v 0.853554 0.076120 0.646447
v 0.925342 0.019215 0.819760
v 0.961940 1.980785 0.808658
v 0.925342 1.923880 0.624670
v 0.891614 1.831470 0.455105
v 0.862050 1.707107 0.306480
v 0.837789 1.555570 0.184507
v 0.819760 1.382684 0.093873
v 0.808659 1.195090 0.038061
v 0.804910 1.000000 0.019216
v 0.808659 0.804910 0.038061
v 0.819760 0.617317 0.093873
v 0.837789 0.444430 0.184507
v 0.862050 0.292893 0.306480
v 0.891614 0.168530 0.455105
v 0.925342 0.076120 0.624670
v 0.961940 0.019215 0.808658
v 1.000000 1.980785 0.804910
v 1.000000 1.923880 0.617317
v 1.000000 1.707107 0.292893
v 1.000000 1.382684 0.076121
v 1.000000 0.617317 0.076121
v 1.000000 0.292893 0.292893
v 1.000000 0.168530 0.444430
v 1.000000 0.076120 0.617317
v 1.000000 0.019215 0.804910
vn 0.0865 0.4696 -0.8786
vn 0.0464 -0.8810 -0.4709
vn 0.0938 0.2890 -0.9527
vn 0.0286 -0.9565 -0.2902
vn 0.0975 0.0975 -0.9904
vn 0.0097 0.9951 -0.0980
vn 0.0097 -0.9951 -0.0980
vn 0.0975 -0.0975 -0.9904
vn 0.0286 0.9565 -0.2902
vn 0.0938 -0.2890 -0.9527
vn 0.0464 0.8810 -0.4709
vn 0.0865 -0.4696 -0.8786
vn 0.0624 0.7715 -0.6332
vn 0.0759 -0.6326 -0.7708
vn 0.0759 0.6326 -0.7708
vn 0.0624 -0.7715 -0.6332
vn 0.2248 0.6326 -0.7412
vn 0.1847 -0.7715 -0.6088
vn 0.2563 0.4696 -0.8448
vn 0.1374 -0.8810 -0.4528
vn 0.2779 0.2890 -0.9161
vn 0.0846 -0.9565 -0.2790
vn 0.2889 0.0976 -0.9524
vn 0.0286 0.9951 -0.0942
vn 0.0286 -0.9951 -0.0942
vn 0.2889 -0.0976 -0.9524
vn 0.0846 0.9565 -0.2790
vn 0.2779 -0.2890 -0.9161
vn 0.1374 0.8810 -0.4528
vn 0.2563 -0.4696 -0.8448
vn 0.1847 0.7715 -0.6088
vn 0.2248 -0.6326 -0.7412
vn 0.4691 -0.0975 -0.8777
vn 0.1374 0.9565 -0.2571
vn 0.4513 -0.2890 -0.8443
vn 0.2230 0.8810 -0.4173
vn 0.4162 -0.4696 -0.7786
vn 0.2999 0.7715 -0.5611
vn 0.3651 -0.6326 -0.6831
vn 0.3651 0.6326 -0.6831
vn 0.2999 -0.7715 -0.5611
vn 0.4162 0.4696 -0.7786
vn 0.2230 -0.8810 -0.4173
vn 0.4513 0.2890 -0.8443
vn 0.1374 -0.9565 -0.2571
vn 0.4691 0.0975 -0.8777
vn 0.0464 0.9951 -0.0869
vn 0.0464 -0.9951 -0.0869
vn 0.4036 -0.7715 -0.4918
vn 0.5601 0.4696 -0.6825
vn 0.3002 -0.8810 -0.3658
vn 0.6073 0.2890 -0.7400
vn 0.1850 -0.9565 -0.2254
vn 0.6314 0.0975 -0.7693
vn 0.0625 0.9951 -0.0761
vn 0.0625 -0.9951 -0.0761
vn 0.6314 -0.0975 -0.7693
vn 0.1850 0.9565 -0.2254
vn 0.6073 -0.2890 -0.7400
vn 0.3002 0.8810 -0.3658
vn 0.5601 -0.4696 -0.6825
vn 0.4036 0.7715 -0.4918
vn 0.4913 -0.6326 -0.5987
vn 0.4913 0.6326 -0.5987
vn 0.2254 0.9565 -0.1850
vn 0.7400 -0.2890 -0.6073
vn 0.3658 0.8810 -0.3002
vn 0.6825 -0.4696 -0.5601
vn 0.4918 0.7715 -0.4036
vn 0.5987 -0.6326 -0.4913
vn 0.5987 0.6326 -0.4913
vn 0.4918 -0.7715 -0.4036
vn 0.6825 0.4696 -0.5601
vn 0.3658 -0.8810 -0.3002
vn 0.7400 0.2890 -0.6073
vn 0.2254 -0.9565 -0.1850
vn 0.7693 0.0975 -0.6314
vn 0.0761 0.9951 -0.0625
vn 0.0761 -0.9951 -0.0625
vn 0.7693 -0.0975 -0.6314
vn 0.7786 0.4696 -0.4162
vn 0.4173 -0.8810 -0.2230
vn 0.8443 0.2890 -0.4513
vn 0.2571 -0.9565 -0.1374
vn 0.8777 0.0975 -0.4691
vn 0.0869 0.9951 -0.0464
vn 0.0869 -0.9951 -0.0464
vn 0.8777 -0.0975 -0.4691
vn 0.2571 0.9565 -0.1374
vn 0.8443 -0.2890 -0.4513
vn 0.4173 0.8810 -0.2230
vn 0.7786 -0.4696 -0.4162
vn 0.5611 0.7715 -0.2999
vn 0.6831 -0.6326 -0.3651
vn 0.6831 0.6326 -0.3651
vn 0.5611 -0.7715 -0.2999
vn 0.9161 -0.2890 -0.2779
vn 0.4528 0.8810 -0.1374
vn 0.8448 -0.4696 -0.2563
vn 0.6088 0.7715 -0.1847
vn 0.7412 -0.6326 -0.2248
vn 0.7412 0.6326 -0.2248
vn 0.6088 -0.7715 -0.1847
vn 0.8448 0.4696 -0.2563
vn 0.4528 -0.8810 -0.1374
vn 0.9161 0.2890 -0.2779
vn 0.2790 -0.9565 -0.0846
vn 0.9524 0.0975 -0.2889
vn 0.0942 0.9951 -0.0286
vn 0.0942 -0.9951 -0.0286
vn 0.9524 -0.0975 -0.2889
vn 0.2790 0.9565 -0.0846
vn 0.4709 -0.8810 -0.0464
vn 0.9527 0.2890 -0.0938
vn 0.2902 -0.9565 -0.0286
vn 0.9904 0.0975 -0.0975
vn 0.0980 0.9951 -0.0097
vn 0.0980 -0.9951 -0.0097
vn 0.9904 -0.0975 -0.0975
vn 0.2902 0.9565 -0.0286
vn 0.9527 -0.2890 -0.0938
vn 0.4709 0.8810 -0.0464
vn 0.8786 -0.4696 -0.0865
vn 0.6332 0.7715 -0.0624
vn 0.7708 -0.6326 -0.0759
vn 0.7708 0.6326 -0.0759
vn 0.6332 -0.7715 -0.0624
vn 0.8786 0.4696 -0.0865
vn 0.8786 -0.4696 0.0865
vn 0.6332 0.7715 0.0624
vn 0.7708 -0.6326 0.0759
vn 0.7708 0.6326 0.0759
vn 0.6332 -0.7715 0.0624
vn 0.8786 0.4696 0.0865
vn 0.4709 -0.8810 0.0464
vn 0.9527 0.2890 0.0938
vn 0.2902 -0.9565 0.0286
vn 0.9904 0.0975 0.0976
vn 0.0980 0.9951 0.0097
vn 0.0980 -0.9951 0.0097
vn 0.9904 -0.0975 0.0976
vn 0.2902 0.9565 0.0286
vn 0.9527 -0.2890 0.0938
vn 0.4709 0.8810 0.0464
vn 0.2790 -0.9565 0.0846
vn 0.9524 0.0975 0.2889
vn 0.0942 0.9951 0.0286
vn 0.0942 -0.9951 0.0286
vn 0.9524 -0.0975 0.2889
vn 0.2790 0.9565 0.0846
vn 0.9161 -0.2890 0.2779
vn 0.4528 0.8810 0.1374
vn 0.8448 -0.4696 0.2563
vn 0.6088 0.7715 0.1847
vn 0.7412 -0.6326 0.2248
vn 0.7412 0.6326 0.2248
vn 0.6088 -0.7715 0.1847
vn 0.8448 0.4696 0.2563
vn 0.4528 -0.8810 0.1374
vn 0.9161 0.2890 0.2779
vn 0.5611 0.7715 0.2999
vn 0.6831 -0.6326 0.3651
vn 0.6831 0.6326 0.3651
vn 0.5611 -0.7715 0.2999
vn 0.7786 0.4696 0.4162
vn 0.4173 -0.8810 0.2230
vn 0.8443 0.2890 0.4513
vn 0.2571 -0.9565 0.1374
vn 0.8777 0.0975 0.4691
vn 0.0869 0.9951 0.0464
vn 0.0869 -0.9951 0.0464
vn 0.8777 -0.0975 0.4691
vn 0.2571 0.9565 0.1374
vn 0.8443 -0.2890 0.4513
vn 0.4173 0.8810 0.2230
vn 0.7786 -0.4696 0.4162
vn 0.7693 0.0975 0.6314
vn 0.0761 0.9951 0.0625
vn 0.0761 -0.9951 0.0625
vn 0.7693 -0.0975 0.6314
vn 0.2254 0.9565 0.1850
vn 0.7400 -0.2890 0.6073
vn 0.3658 0.8810 0.3002
vn 0.6825 -0.4696 0.5601
vn 0.4918 0.7715 0.4036
vn 0.5987 -0.6326 0.4913
vn 0.5987 0.6326 0.4913
vn 0.4918 -0.7715 0.4036
vn 0.6825 0.4696 0.5601
vn 0.3658 -0.8810 0.3002
vn 0.7400 0.2890 0.6073
vn 0.2254 -0.9565 0.1850
vn 0.4913 -0.6326 0.5987
vn 0.4913 0.6326 0.5987
vn 0.4036 -0.7715 0.4918
vn 0.5601 0.4696 0.6825
vn 0.3002 -0.8810 0.3658
vn 0.6073 0.2890 0.7400
vn 0.1850 -0.9565 0.2254
vn 0.6314 0.0975 0.7693
vn 0.0625 0.9951 0.0761
vn 0.0625 -0.9951 0.0761
vn 0.6314 -0.0975 0.7693
vn 0.1850 0.9565 0.2254
vn 0.6073 -0.2890 0.7400
vn 0.3002 0.8810 0.3658
vn 0.5601 -0.4696 0.6825
vn 0.4036 0.7715 0.4918
vn 0.0464 0.9951 0.0869
vn 0.0464 -0.9951 0.0869
vn 0.4691 -0.0975 0.8777
vn 0.1374 0.9565 0.2571
vn 0.4513 -0.2890 0.8443
vn 0.2230 0.8810 0.4173
vn 0.4162 -0.4696 0.7786
vn 0.2999 0.7715 0.5611
vn 0.3651 -0.6326 0.6831
vn 0.3651 0.6326 0.6831
vn 0.2999 -0.7715 0.5611
vn 0.4162 0.4696 0.7786
vn 0.2230 -0.8810 0.4173
vn 0.4513 0.2890 0.8443
vn 0.1374 -0.9565 0.2571
vn 0.4691 0.0975 0.8777
vn 0.2248 0.6326 0.7412
vn 0.1847 -0.7715 0.6088
vn 0.2563 0.4696 0.8448
vn 0.1374 -0.8810 0.4528
vn 0.2779 0.2890 0.9161
vn 0.0846 -0.9565 0.2790
vn 0.2889 0.0975 0.9524
vn 0.0286 0.9951 0.0942
vn 0.0286 -0.9951 0.0942
vn 0.2889 -0.0975 0.9524
vn 0.0846 0.9565 0.2790
vn 0.2779 -0.2890 0.9161
vn 0.1374 0.8810 0.4528
vn 0.2563 -0.4696 0.8448
vn 0.1847 0.7715 0.6088
vn 0.2248 -0.6326 0.7412
vn 0.0975 -0.0975 0.9904
vn 0.0286 0.9565 0.2902
vn 0.0938 -0.2890 0.9527
vn 0.0464 0.8810 0.4709
vn 0.0865 -0.4696 0.8786
vn 0.0624 0.7715 0.6332
vn 0.0759 -0.6326 0.7708
vn 0.0759 0.6326 0.7708
vn 0.0624 -0.7715 0.6332
vn 0.0865 0.4696 0.8786
vn 0.0464 -0.8810 0.4709
vn 0.0938 0.2890 0.9527
vn 0.0286 -0.9565 0.2902
vn 0.0975 0.0975 0.9904
vn 0.0097 0.9951 0.0980
vn 0.0097 -0.9951 0.0980
vn -0.0624 -0.7715 0.6332
vn -0.0865 0.4696 0.8786
vn -0.0464 -0.8810 0.4709
vn -0.0938 0.2890 0.9527
vn -0.0286 -0.9565 0.2902
vn -0.0976 0.0975 0.9904
vn -0.0097 0.9951 0.0980
vn -0.0097 -0.9951 0.0980
vn -0.0976 -0.0975 0.9904
vn -0.0286 0.9565 0.2902
vn -0.0938 -0.2890 0.9527
vn -0.0464 0.8810 0.4709
vn -0.0865 -0.4696 0.8786
vn -0.0624 0.7715 0.6332
vn -0.0759 -0.6326 0.7708
vn -0.0759 0.6326 0.7708
vn -0.2779 -0.2890 0.9161
vn -0.1374 0.8810 0.4528
vn -0.2563 -0.4696 0.8448
vn -0.1847 0.7715 0.6088
vn -0.2248 -0.6326 0.7412
vn -0.2248 0.6326 0.7412
vn -0.1847 -0.7715 0.6088
vn -0.2563 0.4696 0.8448
vn -0.1374 -0.8810 0.4528
vn -0.2779 0.2890 0.9161
vn -0.0846 -0.9565 0.2790
vn -0.2889 0.0975 0.9524
vn -0.0286 0.9951 0.0942
vn -0.0286 -0.9951 0.0942
vn -0.2889 -0.0975 0.9524
vn -0.0846 0.9565 0.2790
vn -0.2230 -0.8810 0.4173
vn -0.4513 0.2890 0.8443
vn -0.1374 -0.9565 0.2571
vn -0.4691 0.0975 0.8777
vn -0.0464 0.9951 0.0869
vn -0.0464 -0.9951 0.0869
vn -0.4691 -0.0975 0.8777
vn -0.1374 0.9565 0.2571
vn -0.4513 -0.2890 0.8443
vn -0.2230 0.8810 0.4173
vn -0.4162 -0.4696 0.7786
vn -0.2999 0.7715 0.5611
vn -0.3651 -0.6326 0.6831
vn -0.3651 0.6326 0.6831
vn -0.2999 -0.7715 0.5611
vn -0.4162 0.4696 0.7786
vn -0.3002 0.8810 0.3658
vn -0.5601 -0.4696 0.6825
vn -0.4036 0.7715 0.4918
vn -0.4913 -0.6326 0.5987
vn -0.4913 0.6326 0.5987
vn -0.4036 -0.7715 0.4918
vn -0.5601 0.4696 0.6825
vn -0.3002 -0.8810 0.3658
vn -0.6073 0.2890 0.7400
vn -0.1850 -0.9565 0.2254
vn -0.6314 0.0975 0.7693
vn -0.0625 0.9951 0.0761
vn -0.0625 -0.9951 0.0761
vn -0.6314 -0.0975 0.7693
vn -0.1850 0.9565 0.2254
vn -0.6073 -0.2890 0.7400
vn -0.7400 0.2890 0.6073
vn -0.2254 -0.9565 0.1850
vn -0.7693 0.0975 0.6314
vn -0.0761 0.9951 0.0625
vn -0.0761 -0.9951 0.0625
vn -0.7693 -0.0975 0.6314
vn -0.2254 0.9565 0.1850
vn -0.7400 -0.2890 0.6073
vn -0.3658 0.8810 0.3002
vn -0.6825 -0.4696 0.5601
vn -0.4918 0.7715 0.4036
vn -0.5987 -0.6326 0.4913
vn -0.5987 0.6326 0.4913
vn -0.4918 -0.7715 0.4036
vn -0.6825 0.4696 0.5601
vn -0.3658 -0.8810 0.3002
vn -0.7786 -0.4696 0.4162
vn -0.5611 0.7715 0.2999
vn -0.6831 -0.6326 0.3651
vn -0.6831 0.6326 0.3651
vn -0.5611 -0.7715 0.2999
vn -0.7786 0.4696 0.4162
vn -0.4173 -0.8810 0.2230
vn -0.8443 0.2890 0.4513
vn -0.2571 -0.9565 0.1374
vn -0.8777 0.0975 0.4691
vn -0.0869 0.9951 0.0464
vn -0.0869 -0.9951 0.0464
vn -0.8777 -0.0975 0.4691
vn -0.2571 0.9565 0.1374
vn -0.8443 -0.2890 0.4513
vn -0.4173 0.8810 0.2230
vn -0.2790 -0.9565 0.0846
vn -0.9524 0.0975 0.2889
vn -0.0942 0.9951 0.0286
vn -0.0942 -0.9951 0.0286
vn -0.9524 -0.0975 0.2889
vn -0.2790 0.9565 0.0846
vn -0.9161 -0.2890 0.2779
vn -0.4528 0.8810 0.1374
vn -0.8448 -0.4696 0.2563
vn -0.6088 0.7715 0.1847
vn -0.7412 -0.6326 0.2248
vn -0.7412 0.6326 0.2248
vn -0.6088 -0.7715 0.1847
vn -0.8448 0.4696 0.2563
vn -0.4528 -0.8810 0.1374
vn -0.9161 0.2890 0.2779
vn -0.6332 0.7715 0.0624
vn -0.7708 -0.6326 0.0759
vn -0.7708 0.6326 0.0759
vn -0.6332 -0.7715 0.0624
vn -0.8786 0.4696 0.0865
vn -0.4709 -0.8810 0.0464
vn -0.9527 0.2890 0.0938
vn -0.2902 -0.9565 0.0286
vn -0.9904 0.0975 0.0975
vn -0.0980 0.9951 0.0097
vn -0.0980 -0.9951 0.0097
vn -0.9904 -0.0975 0.0975
vn -0.2902 0.9565 0.0286
vn -0.9527 -0.2890 0.0938
vn -0.4709 0.8810 0.0464
vn -0.8786 -0.4696 0.0865
vn -0.9904 0.0975 -0.0976
vn -0.0980 0.9951 -0.0097
vn -0.0980 -0.9951 -0.0097
vn -0.9904 -0.0975 -0.0976
vn -0.2902 0.9565 -0.0286
vn -0.9527 -0.2890 -0.0938
vn -0.4709 0.8810 -0.0464
vn -0.8786 -0.4696 -0.0865
vn -0.6332 0.7715 -0.0624
vn -0.7708 -0.6326 -0.0759
vn -0.7708 0.6326 -0.0759
vn -0.6332 -0.7715 -0.0624
vn -0.8786 0.4696 -0.0865
vn -0.4709 -0.8810 -0.0464
vn -0.9527 0.2890 -0.0938
vn -0.2902 -0.9565 -0.0286
vn -0.7412 -0.6326 -0.2248
vn -0.7412 0.6326 -0.2248
vn -0.6088 -0.7715 -0.1847
vn -0.8448 0.4696 -0.2563
vn -0.4528 -0.8810 -0.1374
vn -0.9161 0.2890 -0.2779
vn -0.2790 -0.9565 -0.0846
vn -0.9524 0.0975 -0.2889
vn -0.0942 0.9951 -0.0286
vn -0.0942 -0.9951 -0.0286
vn -0.9524 -0.0975 -0.2889
vn -0.2790 0.9565 -0.0846
vn -0.9161 -0.2890 -0.2779
vn -0.4528 0.8810 -0.1374
vn -0.8448 -0.4696 -0.2563
vn -0.6088 0.7715 -0.1847
vn -0.0869 -0.9951 -0.0464
vn -0.8777 -0.0975 -0.4691
vn -0.2571 0.9565 -0.1374
vn -0.8443 -0.2890 -0.4513
vn -0.4173 0.8810 -0.2231
vn -0.7786 -0.4696 -0.4162
vn -0.5611 0.7715 -0.2999
vn -0.6831 -0.6326 -0.3651
vn -0.6831 0.6326 -0.3651
vn -0.5611 -0.7715 -0.2999
vn -0.7786 0.4696 -0.4162
vn -0.4173 -0.8810 -0.2231
vn -0.8443 0.2890 -0.4513
vn -0.2571 -0.9565 -0.1374
vn -0.8777 0.0975 -0.4691
vn -0.0869 0.9951 -0.0464
vn -0.4918 -0.7715 -0.4036
vn -0.6825 0.4696 -0.5601
vn -0.3658 -0.8810 -0.3002
vn -0.7400 0.2890 -0.6073
vn -0.2254 -0.9565 -0.1850
vn -0.7693 0.0975 -0.6314
vn -0.0761 0.9951 -0.0625
vn -0.0761 -0.9951 -0.0625
vn -0.7693 -0.0975 -0.6314
vn -0.2254 0.9565 -0.1850
vn -0.7400 -0.2890 -0.6073
vn -0.3658 0.8810 -0.3002
vn -0.6825 -0.4696 -0.5601
vn -0.4918 0.7715 -0.4036
vn -0.5987 -0.6326 -0.4913
vn -0.5987 0.6326 -0.4913
vn -0.1850 0.9565 -0.2254
vn -0.6073 -0.2890 -0.7400
vn -0.3002 0.8810 -0.3658
vn -0.5601 -0.4696 -0.6825
vn -0.4036 0.7715 -0.4918
vn -0.4913 -0.6326 -0.5987
vn -0.4913 0.6326 -0.5987
vn -0.4036 -0.7715 -0.4918
vn -0.5601 0.4696 -0.6825
vn -0.3002 -0.8810 -0.3658
vn -0.6073 0.2890 -0.7400
vn -0.1850 -0.9565 -0.2254
vn -0.6314 0.0975 -0.7693
vn -0.0625 0.9951 -0.0761
vn -0.0625 -0.9951 -0.0761
vn -0.6314 -0.0975 -0.7693
vn -0.4162 0.4696 -0.7786
vn -0.2230 -0.8810 -0.4173
vn -0.4513 0.2890 -0.8443
vn -0.1374 -0.9565 -0.2571
vn -0.4691 0.0975 -0.8777
vn -0.0464 0.9951 -0.0869
vn -0.0464 -0.9951 -0.0869
vn -0.4691 -0.0975 -0.8777
vn -0.1374 0.9565 -0.2571
vn -0.4513 -0.2890 -0.8443
vn -0.2230 0.8810 -0.4173
vn -0.4162 -0.4696 -0.7786
vn -0.2999 0.7715 -0.5611
vn -0.3651 -0.6326 -0.6831
vn -0.3651 0.6326 -0.6831
vn -0.2999 -0.7715 -0.5611
vn -0.2779 -0.2890 -0.9161
vn -0.1374 0.8810 -0.4528
vn -0.2563 -0.4696 -0.8448
vn -0.1847 0.7715 -0.6088
vn -0.2248 -0.6326 -0.7412
vn -0.2248 0.6326 -0.7412
vn -0.1847 -0.7715 -0.6088
vn -0.2563 0.4696 -0.8448
vn -0.1374 -0.8810 -0.4528
vn -0.2779 0.2890 -0.9161
vn -0.0846 -0.9565 -0.2790
vn -0.2889 0.0975 -0.9524
vn -0.0286 0.9951 -0.0942
vn -0.0286 -0.9951 -0.0942
vn -0.2889 -0.0975 -0.9524
vn -0.0846 0.9565 -0.2790
vn -0.0464 -0.8810 -0.4709
vn -0.0938 0.2890 -0.9527
vn -0.0286 -0.9565 -0.2902
vn -0.0976 0.0975 -0.9904
vn -0.0097 0.9951 -0.0980
vn -0.0097 -0.9951 -0.0980
vn -0.0976 -0.0975 -0.9904
vn -0.0286 0.9565 -0.2902
vn -0.0938 -0.2890 -0.9527
vn -0.0464 0.8810 -0.4709
vn -0.0865 -0.4696 -0.8786
vn -0.0624 0.7715 -0.6332
vn -0.0759 -0.6326 -0.7708
vn -0.0759 0.6326 -0.7708
vn -0.0624 -0.7715 -0.6332
vn -0.0865 0.4696 -0.8786
vt 0.750000 0.625000
vt 0.750000 0.687500
vt 0.718750 0.687500
vt 0.718750 0.625000
vt 0.750000 0.125000
vt 0.750000 0.187500
vt 0.718750 0.187500
vt 0.718750 0.125000
vt 0.750000 0.562500
vt 0.718750 0.562500
vt 0.750000 0.062500
vt 0.718750 0.062500
vt 0.750000 0.500000
vt 0.718750 0.500000
vt 0.750000 0.937500
vt 0.734375 1.000000
vt 0.718750 0.937500
vt 0.734375 0.000000
vt 0.750000 0.437500
vt 0.718750 0.437500
vt 0.750000 0.875000
vt 0.718750 0.875000
vt 0.750000 0.375000
vt 0.718750 0.375000
vt 0.750000 0.812500
vt 0.718750 0.812500
vt 0.750000 0.312500
vt 0.718750 0.312500
vt 0.750000 0.750000
vt 0.718750 0.750000
vt 0.750000 0.250000
vt 0.718750 0.250000
vt 0.687500 0.750000
vt 0.687500 0.687500
vt 0.687500 0.250000
vt 0.687500 0.187500
vt 0.687500 0.625000
vt 0.687500 0.125000
vt 0.687500 0.562500
vt 0.687500 0.062500
vt 0.687500 0.500000
vt 0.703125 1.000000
vt 0.687500 0.937500
vt 0.703125 0.000000
vt 0.687500 0.437500
vt 0.687500 0.875000
vt 0.687500 0.375000
vt 0.687500 0.812500
vt 0.687500 0.312500
vt 0.656250 0.500000
vt 0.656250 0.437500
vt 0.656250 0.937500
vt 0.656250 0.875000
vt 0.656250 0.375000
vt 0.656250 0.812500
vt 0.656250 0.312500
vt 0.656250 0.750000
vt 0.656250 0.250000
vt 0.656250 0.687500
vt 0.656250 0.187500
vt 0.656250 0.625000
vt 0.656250 0.125000
vt 0.656250 0.562500
vt 0.656250 0.062500
vt 0.671875 1.000000
vt 0.671875 0.000000
vt 0.625000 0.250000
vt 0.625000 0.187500
vt 0.625000 0.687500
vt 0.625000 0.625000
vt 0.625000 0.125000
vt 0.625000 0.562500
vt 0.625000 0.062500
vt 0.625000 0.500000
vt 0.640625 1.000000
vt 0.625000 0.937500
vt 0.640625 0.000000
vt 0.625000 0.437500
vt 0.625000 0.875000
vt 0.625000 0.375000
vt 0.625000 0.812500
vt 0.625000 0.312500
vt 0.625000 0.750000
vt 0.593750 0.937500
vt 0.593750 0.875000
vt 0.593750 0.437500
vt 0.593750 0.375000
vt 0.593750 0.812500
vt 0.593750 0.312500
vt 0.593750 0.750000
vt 0.593750 0.250000
vt 0.593750 0.687500
vt 0.593750 0.187500
vt 0.593750 0.625000
vt 0.593750 0.125000
vt 0.593750 0.562500
vt 0.593750 0.062500
vt 0.593750 0.500000
vt 0.609375 1.000000
vt 0.609375 0.000000
vt 0.562500 0.687500
vt 0.562500 0.625000
vt 0.562500 0.187500
vt 0.562500 0.125000
vt 0.562500 0.562500
vt 0.562500 0.062500
vt 0.562500 0.500000
vt 0.578125 1.000000
vt 0.562500 0.937500
vt 0.578125 0.000000
vt 0.562500 0.437500
vt 0.562500 0.875000
vt 0.562500 0.375000
vt 0.562500 0.812500
vt 0.562500 0.312500
vt 0.562500 0.750000
vt 0.562500 0.250000
vt 0.531250 0.437500
vt 0.531250 0.375000
vt 0.531250 0.875000
vt 0.531250 0.812500
vt 0.531250 0.312500
vt 0.531250 0.750000
vt 0.531250 0.250000
vt 0.531250 0.687500
vt 0.531250 0.187500
vt 0.531250 0.625000
vt 0.531250 0.125000
vt 0.531250 0.562500
vt 0.531250 0.062500
vt 0.531250 0.500000
vt 0.546875 1.000000
vt 0.531250 0.937500
vt 0.546875 0.000000
vt 0.500000 0.187500
vt 0.500000 0.125000
vt 0.500000 0.625000
vt 0.500000 0.562500
vt 0.500000 0.062500
vt 0.500000 0.500000
vt 0.515625 1.000000
vt 0.500000 0.937500
vt 0.515625 0.000000
vt 0.500000 0.437500
vt 0.500000 0.875000
vt 0.500000 0.375000
vt 0.500000 0.812500
vt 0.500000 0.312500
vt 0.500000 0.750000
vt 0.500000 0.250000
vt 0.500000 0.687500
vt 0.468750 0.375000
vt 0.468750 0.312500
vt 0.468750 0.812500
vt 0.468750 0.750000
vt 0.468750 0.250000
vt 0.468750 0.687500
vt 0.468750 0.187500
vt 0.468750 0.625000
vt 0.468750 0.125000
vt 0.468750 0.562500
vt 0.468750 0.062500
vt 0.468750 0.500000
vt 0.484375 1.000000
vt 0.468750 0.937500
vt 0.484375 0.000000
vt 0.468750 0.437500
vt 0.468750 0.875000
vt 0.437500 0.125000
vt 0.437500 0.062500
vt 0.437500 0.562500
vt 0.437500 0.500000
vt 0.453125 1.000000
vt 0.437500 0.937500
vt 0.453125 0.000000
vt 0.437500 0.437500
vt 0.437500 0.875000
vt 0.437500 0.375000
vt 0.437500 0.812500
vt 0.437500 0.312500
vt 0.437500 0.750000
vt 0.437500 0.250000
vt 0.437500 0.687500
vt 0.437500 0.187500
vt 0.437500 0.625000
vt 0.406250 0.812500
vt 0.406250 0.750000
vt 0.406250 0.312500
vt 0.406250 0.250000
vt 0.406250 0.687500
vt 0.406250 0.187500
vt 0.406250 0.625000
vt 0.406250 0.125000
vt 0.406250 0.562500
vt 0.406250 0.062500
vt 0.406250 0.500000
vt 0.421875 1.000000
vt 0.406250 0.937500
vt 0.421875 0.000000
vt 0.406250 0.437500
vt 0.406250 0.875000
vt 0.406250 0.375000
vt 0.375000 0.562500
vt 0.375000 0.500000
vt 0.390625 1.000000
vt 0.375000 0.937500
vt 0.390625 0.000000
vt 0.375000 0.062500
vt 0.375000 0.437500
vt 0.375000 0.875000
vt 0.375000 0.375000
vt 0.375000 0.812500
vt 0.375000 0.312500
vt 0.375000 0.750000
vt 0.375000 0.250000
vt 0.375000 0.687500
vt 0.375000 0.187500
vt 0.375000 0.625000
vt 0.375000 0.125000
vt 0.343750 0.312500
vt 0.343750 0.250000
vt 0.343750 0.750000
vt 0.343750 0.687500
vt 0.343750 0.187500
vt 0.343750 0.625000
vt 0.343750 0.125000
vt 0.343750 0.562500
vt 0.343750 0.062500
vt 0.343750 0.500000
vt 0.359375 1.000000
vt 0.343750 0.937500
vt 0.359375 0.000000
vt 0.343750 0.437500
vt 0.343750 0.875000
vt 0.343750 0.375000
vt 0.343750 0.812500
vt 0.328125 1.000000
vt 0.312500 0.937500
vt 0.328125 0.000000
vt 0.312500 0.062500
vt 0.312500 0.500000
vt 0.312500 0.437500
vt 0.312500 0.875000
vt 0.312500 0.375000
vt 0.312500 0.812500
vt 0.312500 0.312500
vt 0.312500 0.750000
vt 0.312500 0.250000
vt 0.312500 0.687500
vt 0.312500 0.187500
vt 0.312500 0.625000
vt 0.312500 0.125000
vt 0.312500 0.562500
vt 0.281250 0.750000
vt 0.281250 0.687500
vt 0.281250 0.250000
vt 0.281250 0.187500
vt 0.281250 0.625000
vt 0.281250 0.125000
vt 0.281250 0.562500
vt 0.281250 0.062500
vt 0.281250 0.500000
vt 0.296875 1.000000
vt 0.281250 0.937500
vt 0.296875 0.000000
vt 0.281250 0.437500
vt 0.281250 0.875000
vt 0.281250 0.375000
vt 0.281250 0.812500
vt 0.281250 0.312500
vt 0.250000 0.500000
vt 0.250000 0.437500
vt 0.250000 0.937500
vt 0.250000 0.875000
vt 0.250000 0.375000
vt 0.250000 0.812500
vt 0.250000 0.312500
vt 0.250000 0.750000
vt 0.250000 0.250000
vt 0.250000 0.687500
vt 0.250000 0.187500
vt 0.250000 0.625000
vt 0.250000 0.125000
vt 0.250000 0.562500
vt 0.250000 0.062500
vt 0.265625 1.000000
vt 0.265625 0.000000
vt 0.218750 0.250000
vt 0.218750 0.187500
vt 0.218750 0.687500
vt 0.218750 0.625000
vt 0.218750 0.125000
vt 0.218750 0.562500
vt 0.218750 0.062500
vt 0.218750 0.500000
vt 0.234375 1.000000
vt 0.218750 0.937500
vt 0.234375 0.000000
vt 0.218750 0.437500
vt 0.218750 0.875000
vt 0.218750 0.375000
vt 0.218750 0.812500
vt 0.218750 0.312500
vt 0.218750 0.750000
vt 0.187500 0.437500
vt 0.187500 0.375000
vt 0.187500 0.875000
vt 0.187500 0.812500
vt 0.187500 0.312500
vt 0.187500 0.750000
vt 0.187500 0.250000
vt 0.187500 0.687500
vt 0.187500 0.187500
vt 0.187500 0.625000
vt 0.187500 0.125000
vt 0.187500 0.562500
vt 0.187500 0.062500
vt 0.187500 0.500000
vt 0.203125 1.000000
vt 0.187500 0.937500
vt 0.203125 0.000000
vt 0.156250 0.187500
vt 0.156250 0.125000
vt 0.156250 0.625000
vt 0.156250 0.562500
vt 0.156250 0.062500
vt 0.156250 0.500000
vt 0.171875 1.000000
vt 0.156250 0.937500
vt 0.171875 0.000000
vt 0.156250 0.437500
vt 0.156250 0.875000
vt 0.156250 0.375000
vt 0.156250 0.812500
vt 0.156250 0.312500
vt 0.156250 0.750000
vt 0.156250 0.250000
vt 0.156250 0.687500
vt 0.125000 0.875000
vt 0.125000 0.812500
vt 0.125000 0.375000
vt 0.125000 0.312500
vt 0.125000 0.750000
vt 0.125000 0.250000
vt 0.125000 0.687500
vt 0.125000 0.187500
vt 0.125000 0.625000
vt 0.125000 0.125000
vt 0.125000 0.562500
vt 0.125000 0.062500
vt 0.125000 0.500000
vt 0.140625 1.000000
vt 0.125000 0.937500
vt 0.140625 0.000000
vt 0.125000 0.437500
vt 0.093750 0.625000
vt 0.093750 0.562500
vt 0.093750 0.125000
vt 0.093750 0.062500
vt 0.093750 0.500000
vt 0.109375 1.000000
vt 0.093750 0.937500
vt 0.109375 0.000000
vt 0.093750 0.437500
vt 0.093750 0.875000
vt 0.093750 0.375000
vt 0.093750 0.812500
vt 0.093750 0.312500
vt 0.093750 0.750000
vt 0.093750 0.250000
vt 0.093750 0.687500
vt 0.093750 0.187500
vt 0.062500 0.375000
vt 0.062500 0.312500
vt 0.062500 0.812500
vt 0.062500 0.750000
vt 0.062500 0.250000
vt 0.062500 0.687500
vt 0.062500 0.187500
vt 0.062500 0.625000
vt 0.062500 0.125000
vt 0.062500 0.562500
vt 0.062500 0.062500
vt 0.062500 0.500000
vt 0.078125 1.000000
vt 0.062500 0.937500
vt 0.078125 0.000000
vt 0.062500 0.437500
vt 0.062500 0.875000
vt 0.031250 0.125000
vt 0.031250 0.062500
vt 0.031250 0.562500
vt 0.031250 0.500000
vt 0.046875 1.000000
vt 0.031250 0.937500
vt 0.046875 0.000000
vt 0.031250 0.437500
vt 0.031250 0.875000
vt 0.031250 0.375000
vt 0.031250 0.812500
vt 0.031250 0.312500
vt 0.031250 0.750000
vt 0.031250 0.250000
vt 0.031250 0.687500
vt 0.031250 0.187500
vt 0.031250 0.625000
vt 0.000000 0.812500
vt 0.000000 0.750000
vt 0.000000 0.312500
vt 0.000000 0.250000
vt 0.000000 0.687500
vt 0.000000 0.187500
vt 0.000000 0.625000
vt 0.000000 0.125000
vt 0.000000 0.562500
vt 0.000000 0.062500
vt 0.000000 0.500000
vt 0.015625 1.000000
vt 0.000000 0.937500
vt 0.015625 0.000000
vt 0.000000 0.437500
vt 0.000000 0.875000
vt 0.000000 0.375000
vt 1.000000 0.500000
vt 1.000000 0.562500
vt 0.968750 0.562500
vt 0.968750 0.500000
vt 1.000000 0.937500
vt 0.984375 1.000000
vt 0.968750 0.937500
vt 0.984375 0.000000
vt 1.000000 0.062500
vt 0.968750 0.062500
vt 1.000000 0.437500
vt 0.968750 0.437500
vt 1.000000 0.875000
vt 0.968750 0.875000
vt 1.000000 0.375000
vt 0.968750 0.375000
vt 1.000000 0.812500
vt 0.968750 0.812500
vt 1.000000 0.312500
vt 0.968750 0.312500
vt 1.000000 0.750000
vt 0.968750 0.750000
vt 1.000000 0.250000
vt 0.968750 0.250000
vt 1.000000 0.687500
vt 0.968750 0.687500
vt 1.000000 0.187500
vt 0.968750 0.187500
vt 1.000000 0.625000
vt 0.968750 0.625000
vt 1.000000 0.125000
vt 0.968750 0.125000
vt 0.937500 0.312500
vt 0.937500 0.250000
vt 0.937500 0.750000
vt 0.937500 0.687500
vt 0.937500 0.187500
vt 0.937500 0.625000
vt 0.937500 0.125000
vt 0.937500 0.562500
vt 0.937500 0.062500
vt 0.937500 0.500000
vt 0.953125 1.000000
vt 0.937500 0.937500
vt 0.953125 0.000000
vt 0.937500 0.437500
vt 0.937500 0.875000
vt 0.937500 0.375000
vt 0.937500 0.812500
vt 0.921875 0.000000
vt 0.906250 0.062500
vt 0.906250 0.500000
vt 0.906250 0.437500
vt 0.906250 0.937500
vt 0.906250 0.875000
vt 0.906250 0.375000
vt 0.906250 0.812500
vt 0.906250 0.312500
vt 0.906250 0.750000
vt 0.906250 0.250000
vt 0.906250 0.687500
vt 0.906250 0.187500
vt 0.906250 0.625000
vt 0.906250 0.125000
vt 0.906250 0.562500
vt 0.921875 1.000000
vt 0.875000 0.250000
vt 0.875000 0.187500
vt 0.875000 0.687500
vt 0.875000 0.625000
vt 0.875000 0.125000
vt 0.875000 0.562500
vt 0.875000 0.062500
vt 0.875000 0.500000
vt 0.890625 1.000000
vt 0.875000 0.937500
vt 0.890625 0.000000
vt 0.875000 0.437500
vt 0.875000 0.875000
vt 0.875000 0.375000
vt 0.875000 0.812500
vt 0.875000 0.312500
vt 0.875000 0.750000
vt 0.843750 0.937500
vt 0.843750 0.875000
vt 0.843750 0.437500
vt 0.843750 0.375000
vt 0.843750 0.812500
vt 0.843750 0.312500
vt 0.843750 0.750000
vt 0.843750 0.250000
vt 0.843750 0.687500
vt 0.843750 0.187500
vt 0.843750 0.625000
vt 0.843750 0.125000
vt 0.843750 0.562500
vt 0.843750 0.062500
vt 0.843750 0.500000
vt 0.859375 1.000000
vt 0.859375 0.000000
vt 0.812500 0.687500
vt 0.812500 0.625000
vt 0.812500 0.187500
vt 0.812500 0.125000
vt 0.812500 0.562500
vt 0.812500 0.062500
vt 0.812500 0.500000
vt 0.828125 1.000000
vt 0.812500 0.937500
vt 0.828125 0.000000
vt 0.812500 0.437500
vt 0.812500 0.875000
vt 0.812500 0.375000
vt 0.812500 0.812500
vt 0.812500 0.312500
vt 0.812500 0.750000
vt 0.812500 0.250000
vt 0.781250 0.437500
vt 0.781250 0.375000
vt 0.781250 0.875000
vt 0.781250 0.812500
vt 0.781250 0.312500
vt 0.781250 0.750000
vt 0.781250 0.250000
vt 0.781250 0.687500
vt 0.781250 0.187500
vt 0.781250 0.625000
vt 0.781250 0.125000
vt 0.781250 0.562500
vt 0.781250 0.062500
vt 0.781250 0.500000
vt 0.796875 1.000000
vt 0.781250 0.937500
vt 0.796875 0.000000
vt 0.765625 1.000000
vt 0.765625 0.000000
s 0
usemtl Material.001
f 485/15/7 11/16/7 21/17/7 22/18/7
f 489/19/8 488/20/8 29/21/8 30/22/8
f 12/23/9 485/15/9 22/18/9 23/24/9
f 490/25/10 489/19/10 30/22/10 31/26/10
f 13/27/11 12/23/11 23/24/11 24/28/11
f 482/29/12 9/30/12 17/31/12
f 16/32/13 490/25/13 31/26/13
f 14/33/14 13/27/14 24/28/14 25/34/14
f 483/35/15 482/29/15 17/31/15 18/36/15
f 486/37/16 14/33/16 25/34/16 26/38/16
f 10/39/17 483/35/17 18/36/17 19/40/17
f 15/41/18 486/37/18 26/38/18 27/42/18
f 484/43/19 10/39/19 19/40/19 20/44/19
f 487/45/20 15/41/20 27/42/20 28/46/20
f 11/16/21 484/43/21 20/44/21 21/17/21
f 488/20/22 487/45/22 28/46/22 29/21/22
f 21/17/23 20/44/23 35/47/23 36/48/23
f 29/21/24 28/46/24 43/49/24 44/50/24
f 22/18/25 21/17/25 36/48/25 37/51/25
f 30/22/26 29/21/26 44/50/26 45/52/26
f 23/24/27 22/18/27 37/51/27 38/53/27
f 31/26/28 30/22/28 45/52/28 46/54/28
f 24/28/29 23/24/29 38/53/29 39/55/29
f 17/31/30 9/56/30 32/57/30
f 16/58/31 31/26/31 46/54/31
f 25/34/32 24/28/32 39/55/32 40/59/32
f 18/36/33 17/31/33 32/57/33 33/60/33
f 26/38/34 25/34/34 40/59/34 41/61/34
f 19/40/35 18/36/35 33/60/35 34/62/35
f 27/42/36 26/38/36 41/61/36 42/63/36
f 20/44/37 19/40/37 34/62/37 35/47/37
f 28/46/38 27/42/38 42/63/38 43/49/38
f 40/59/39 39/55/39 54/64/39 55/65/39
f 33/60/40 32/57/40 47/66/40 48/67/40
f 41/61/41 40/59/41 55/65/41 56/68/41
f 34/62/42 33/60/42 48/67/42 49/69/42
f 42/63/43 41/61/43 56/68/43 57/70/43
f 35/47/44 34/62/44 49/69/44 50/71/44
f 43/49/45 42/63/45 57/70/45 58/72/45
f 36/48/46 35/47/46 50/71/46 51/73/46
f 44/50/47 43/49/47 58/72/47 59/74/47
f 37/51/48 36/48/48 51/73/48 52/75/48
f 45/52/49 44/50/49 59/74/49 60/76/49
f 38/53/50 37/51/50 52/75/50 53/77/50
f 46/54/51 45/52/51 60/76/51 61/78/51
f 39/55/52 38/53/52 53/77/52 54/64/52
f 32/57/53 9/79/53 47/66/53
f 16/80/54 46/54/54 61/78/54
f 59/74/55 58/72/55 73/81/55 74/82/55
f 52/75/56 51/73/56 66/83/56 67/84/56
f 60/76/57 59/74/57 74/82/57 75/85/57
f 53/77/58 52/75/58 67/84/58 68/86/58
f 61/78/59 60/76/59 75/85/59 76/87/59
f 54/64/60 53/77/60 68/86/60 69/88/60
f 47/66/61 9/89/61 62/90/61
f 16/91/62 61/78/62 76/87/62
f 55/65/63 54/64/63 69/88/63 70/92/63
f 48/67/64 47/66/64 62/90/64 63/93/64
f 56/68/65 55/65/65 70/92/65 71/94/65
f 49/69/66 48/67/66 63/93/66 64/95/66
f 57/70/67 56/68/67 71/94/67 72/96/67
f 50/71/68 49/69/68 64/95/68 65/97/68
f 58/72/69 57/70/69 72/96/69 73/81/69
f 51/73/70 50/71/70 65/97/70 66/83/70
f 63/93/71 62/90/71 77/98/71 78/99/71
f 71/94/72 70/92/72 85/100/72 86/101/72
f 64/95/73 63/93/73 78/99/73 79/102/73
f 72/96/74 71/94/74 86/101/74 87/103/74
f 65/97/75 64/95/75 79/102/75 80/104/75
f 73/81/76 72/96/76 87/103/76 88/105/76
f 66/83/77 65/97/77 80/104/77 81/106/77
f 74/82/78 73/81/78 88/105/78 89/107/78
f 67/84/79 66/83/79 81/106/79 82/108/79
f 75/85/80 74/82/80 89/107/80 90/109/80
f 68/86/81 67/84/81 82/108/81 83/110/81
f 76/87/82 75/85/82 90/109/82 91/111/82
f 69/88/83 68/86/83 83/110/83 84/112/83
f 62/90/84 9/113/84 77/98/84
f 16/114/85 76/87/85 91/111/85
f 70/92/86 69/88/86 84/112/86 85/100/86
f 82/108/87 81/106/87 96/115/87 97/116/87
f 90/109/88 89/107/88 104/117/88 105/118/88
f 83/110/89 82/108/89 97/116/89 98/119/89
f 91/111/90 90/109/90 105/118/90 106/120/90
f 84/112/91 83/110/91 98/119/91 99/121/91
f 77/98/92 9/122/92 92/123/92
f 16/124/93 91/111/93 106/120/93
f 85/100/94 84/112/94 99/121/94 100/125/94
f 78/99/95 77/98/95 92/123/95 93/126/95
f 86/101/96 85/100/96 100/125/96 101/127/96
f 79/102/97 78/99/97 93/126/97 94/128/97
f 87/103/98 86/101/98 101/127/98 102/129/98
f 80/104/99 79/102/99 94/128/99 95/130/99
f 88/105/100 87/103/100 102/129/100 103/131/100
f 81/106/101 80/104/101 95/130/101 96/115/101
f 89/107/102 88/105/102 103/131/102 104/117/102
f 101/127/103 100/125/103 115/132/103 116/133/103
f 94/128/104 93/126/104 108/134/104 109/135/104
f 102/129/105 101/127/105 116/133/105 117/136/105
f 95/130/106 94/128/106 109/135/106 110/137/106
f 103/131/107 102/129/107 117/136/107 118/138/107
f 96/115/108 95/130/108 110/137/108 111/139/108
f 104/117/109 103/131/109 118/138/109 119/140/109
f 97/116/110 96/115/110 111/139/110 112/141/110
f 105/118/111 104/117/111 119/140/111 120/142/111
f 98/119/112 97/116/112 112/141/112 113/143/112
f 106/120/113 105/118/113 120/142/113 121/144/113
f 99/121/114 98/119/114 113/143/114 114/145/114
f 92/123/115 9/146/115 107/147/115
f 16/148/116 106/120/116 121/144/116
f 100/125/117 99/121/117 114/145/117 115/132/117
f 93/126/118 92/123/118 107/147/118 108/134/118
f 120/142/119 119/140/119 134/149/119 135/150/119
f 113/143/120 112/141/120 127/151/120 128/152/120
f 121/144/121 120/142/121 135/150/121 136/153/121
f 114/145/122 113/143/122 128/152/122 129/154/122
f 107/147/123 9/155/123 122/156/123
f 16/157/124 121/144/124 136/153/124
f 115/132/125 114/145/125 129/154/125 130/158/125
f 108/134/126 107/147/126 122/156/126 123/159/126
f 116/133/127 115/132/127 130/158/127 131/160/127
f 109/135/128 108/134/128 123/159/128 124/161/128
f 117/136/129 116/133/129 131/160/129 132/162/129
f 110/137/130 109/135/130 124/161/130 125/163/130
f 118/138/131 117/136/131 132/162/131 133/164/131
f 111/139/132 110/137/132 125/163/132 126/165/132
f 119/140/133 118/138/133 133/164/133 134/149/133
f 112/141/134 111/139/134 126/165/134 127/151/134
f 132/162/135 131/160/135 146/166/135 147/167/135
f 125/163/136 124/161/136 139/168/136 140/169/136
f 133/164/137 132/162/137 147/167/137 148/170/137
f 126/165/138 125/163/138 140/169/138 141/171/138
f 134/149/139 133/164/139 148/170/139 149/172/139
f 127/151/140 126/165/140 141/171/140 142/173/140
f 135/150/141 134/149/141 149/172/141 150/174/141
f 128/152/142 127/151/142 142/173/142 143/175/142
f 136/153/143 135/150/143 150/174/143 151/176/143
f 129/154/144 128/152/144 143/175/144 144/177/144
f 122/156/145 9/178/145 137/179/145
f 16/180/146 136/153/146 151/176/146
f 130/158/147 129/154/147 144/177/147 145/181/147
f 123/159/148 122/156/148 137/179/148 138/182/148
f 131/160/149 130/158/149 145/181/149 146/166/149
f 124/161/150 123/159/150 138/182/150 139/168/150
f 151/176/151 150/174/151 165/183/151 166/184/151
f 144/177/152 143/175/152 158/185/152 159/186/152
f 137/179/153 9/187/153 152/188/153
f 16/189/154 151/176/154 166/184/154
f 145/181/155 144/177/155 159/186/155 160/190/155
f 138/182/156 137/179/156 152/188/156 153/191/156
f 146/166/157 145/181/157 160/190/157 161/192/157
f 139/168/158 138/182/158 153/191/158 154/193/158
f 147/167/159 146/166/159 161/192/159 162/194/159
f 140/169/160 139/168/160 154/193/160 155/195/160
f 148/170/161 147/167/161 162/194/161 163/196/161
f 141/171/162 140/169/162 155/195/162 156/197/162
f 149/172/163 148/170/163 163/196/163 164/198/163
f 142/173/164 141/171/164 156/197/164 157/199/164
f 150/174/165 149/172/165 164/198/165 165/183/165
f 143/175/166 142/173/166 157/199/166 158/185/166
f 155/195/167 154/193/167 169/200/167 170/201/167
f 163/196/168 162/194/168 177/202/168 178/203/168
f 156/197/169 155/195/169 170/201/169 171/204/169
f 164/198/170 163/196/170 178/203/170 179/205/170
f 157/199/171 156/197/171 171/204/171 172/206/171
f 165/183/172 164/198/172 179/205/172 180/207/172
f 158/185/173 157/199/173 172/206/173 173/208/173
f 166/184/174 165/183/174 180/207/174 181/209/174
f 159/186/175 158/185/175 173/208/175 174/210/175
f 152/188/176 9/211/176 167/212/176
f 16/213/177 166/184/177 181/209/177
f 160/190/178 159/186/178 174/210/178 175/214/178
f 153/191/179 152/188/179 167/212/179 168/215/179
f 161/192/180 160/190/180 175/214/180 176/216/180
f 154/193/181 153/191/181 168/215/181 169/200/181
f 162/194/182 161/192/182 176/216/182 177/202/182
f 174/210/183 173/208/183 188/217/183 189/218/183
f 167/212/184 9/219/184 182/220/184
f 16/221/185 181/209/185 196/222/185
f 175/214/186 174/210/186 189/218/186 190/223/186
f 168/215/187 167/212/187 182/220/187 183/224/187
f 176/216/188 175/214/188 190/223/188 191/225/188
f 169/200/189 168/215/189 183/224/189 184/226/189
f 177/202/190 176/216/190 191/225/190 192/227/190
f 170/201/191 169/200/191 184/226/191 185/228/191
f 178/203/192 177/202/192 192/227/192 193/229/192
f 171/204/193 170/201/193 185/228/193 186/230/193
f 179/205/194 178/203/194 193/229/194 194/231/194
f 172/206/195 171/204/195 186/230/195 187/232/195
f 180/207/196 179/205/196 194/231/196 195/233/196
f 173/208/197 172/206/197 187/232/197 188/217/197
f 181/209/198 180/207/198 195/233/198 196/222/198
f 193/229/199 192/227/199 207/234/199 208/235/199
f 186/230/200 185/228/200 200/236/200 201/237/200
f 194/231/201 193/229/201 208/235/201 209/238/201
f 187/232/202 186/230/202 201/237/202 202/239/202
f 195/233/203 194/231/203 209/238/203 210/240/203
f 188/217/204 187/232/204 202/239/204 203/241/204
f 196/222/205 195/233/205 210/240/205 211/242/205
f 189/218/206 188/217/206 203/241/206 204/243/206
f 182/220/207 9/244/207 197/245/207
f 16/246/208 196/222/208 211/242/208
f 190/223/209 189/218/209 204/243/209 205/247/209
f 183/224/210 182/220/210 197/245/210 198/248/210
f 191/225/211 190/223/211 205/247/211 206/249/211
f 184/226/212 183/224/212 198/248/212 199/250/212
f 192/227/213 191/225/213 206/249/213 207/234/213
f 185/228/214 184/226/214 199/250/214 200/236/214
f 197/245/215 9/251/215 212/252/215
f 16/253/216 211/242/216 226/254/216
f 205/247/217 204/243/217 219/255/217 220/256/217
f 198/248/218 197/245/218 212/252/218 213/257/218
f 206/249/219 205/247/219 220/256/219 221/258/219
f 199/250/220 198/248/220 213/257/220 214/259/220
f 207/234/221 206/249/221 221/258/221 222/260/221
f 200/236/222 199/250/222 214/259/222 215/261/222
f 208/235/223 207/234/223 222/260/223 223/262/223
f 201/237/224 200/236/224 215/261/224 216/263/224
f 209/238/225 208/235/225 223/262/225 224/264/225
f 202/239/226 201/237/226 216/263/226 217/265/226
f 210/240/227 209/238/227 224/264/227 225/266/227
f 203/241/228 202/239/228 217/265/228 218/267/228
f 211/242/229 210/240/229 225/266/229 226/254/229
f 204/243/230 203/241/230 218/267/230 219/255/230
f 216/263/231 215/261/231 230/268/231 231/269/231
f 224/264/232 223/262/232 238/270/232 239/271/232
f 217/265/233 216/263/233 231/269/233 232/272/233
f 225/266/234 224/264/234 239/271/234 240/273/234
f 218/267/235 217/265/235 232/272/235 233/274/235
f 226/254/236 225/266/236 240/273/236 241/275/236
f 219/255/237 218/267/237 233/274/237 234/276/237
f 212/252/238 9/277/238 227/278/238
f 16/279/239 226/254/239 241/275/239
f 220/256/240 219/255/240 234/276/240 235/280/240
f 213/257/241 212/252/241 227/278/241 228/281/241
f 221/258/242 220/256/242 235/280/242 236/282/242
f 214/259/243 213/257/243 228/281/243 229/283/243
f 222/260/244 221/258/244 236/282/244 237/284/244
f 215/261/245 214/259/245 229/283/245 230/268/245
f 223/262/246 222/260/246 237/284/246 238/270/246
f 235/280/247 234/276/247 249/285/247 250/286/247
f 228/281/248 227/278/248 242/287/248 243/288/248
f 236/282/249 235/280/249 250/286/249 251/289/249
f 229/283/250 228/281/250 243/288/250 244/290/250
f 237/284/251 236/282/251 251/289/251 252/291/251
f 230/268/252 229/283/252 244/290/252 245/292/252
f 238/270/253 237/284/253 252/291/253 253/293/253
f 231/269/254 230/268/254 245/292/254 246/294/254
f 239/271/255 238/270/255 253/293/255 254/295/255
f 232/272/256 231/269/256 246/294/256 247/296/256
f 240/273/257 239/271/257 254/295/257 255/297/257
f 233/274/258 232/272/258 247/296/258 248/298/258
f 241/275/259 240/273/259 255/297/259 256/299/259
f 234/276/260 233/274/260 248/298/260 249/285/260
f 227/278/261 9/300/261 242/287/261
f 16/301/262 241/275/262 256/299/262
f 254/295/263 253/293/263 268/302/263 269/303/263
f 247/296/264 246/294/264 261/304/264 262/305/264
f 255/297/265 254/295/265 269/303/265 270/306/265
f 248/298/266 247/296/266 262/305/266 263/307/266
f 256/299/267 255/297/267 270/306/267 271/308/267
f 249/285/268 248/298/268 263/307/268 264/309/268
f 242/287/269 9/310/269 257/311/269
f 16/312/270 256/299/270 271/308/270
f 250/286/271 249/285/271 264/309/271 265/313/271
f 243/288/272 242/287/272 257/311/272 258/314/272
f 251/289/273 250/286/273 265/313/273 266/315/273
f 244/290/274 243/288/274 258/314/274 259/316/274
f 252/291/275 251/289/275 266/315/275 267/317/275
f 245/292/276 244/290/276 259/316/276 260/318/276
f 253/293/277 252/291/277 267/317/277 268/302/277
f 246/294/278 245/292/278 260/318/278 261/304/278
f 266/315/279 265/313/279 280/319/279 281/320/279
f 259/316/280 258/314/280 273/321/280 274/322/280
f 267/317/281 266/315/281 281/320/281 282/323/281
f 260/318/282 259/316/282 274/322/282 275/324/282
f 268/302/283 267/317/283 282/323/283 283/325/283
f 261/304/284 260/318/284 275/324/284 276/326/284
f 269/303/285 268/302/285 283/325/285 284/327/285
f 262/305/286 261/304/286 276/326/286 277/328/286
f 270/306/287 269/303/287 284/327/287 285/329/287
f 263/307/288 262/305/288 277/328/288 278/330/288
f 271/308/289 270/306/289 285/329/289 286/331/289
f 264/309/290 263/307/290 278/330/290 279/332/290
f 257/311/291 9/333/291 272/334/291
f 16/335/292 271/308/292 286/331/292
f 265/313/293 264/309/293 279/332/293 280/319/293
f 258/314/294 257/311/294 272/334/294 273/321/294
f 285/329/295 284/327/295 299/336/295 300/337/295
f 278/330/296 277/328/296 292/338/296 293/339/296
f 286/331/297 285/329/297 300/337/297 301/340/297
f 279/332/298 278/330/298 293/339/298 294/341/298
f 272/334/299 9/342/299 287/343/299
f 16/344/300 286/331/300 301/340/300
f 280/319/301 279/332/301 294/341/301 295/345/301
f 273/321/302 272/334/302 287/343/302 288/346/302
f 281/320/303 280/319/303 295/345/303 296/347/303
f 274/322/304 273/321/304 288/346/304 289/348/304
f 282/323/305 281/320/305 296/347/305 297/349/305
f 275/324/306 274/322/306 289/348/306 290/350/306
f 283/325/307 282/323/307 297/349/307 298/351/307
f 276/326/308 275/324/308 290/350/308 291/352/308
f 284/327/309 283/325/309 298/351/309 299/336/309
f 277/328/310 276/326/310 291/352/310 292/338/310
f 289/348/311 288/346/311 303/353/311 304/354/311
f 297/349/312 296/347/312 311/355/312 312/356/312
f 290/350/313 289/348/313 304/354/313 305/357/313
f 298/351/314 297/349/314 312/356/314 313/358/314
f 291/352/315 290/350/315 305/357/315 306/359/315
f 299/336/316 298/351/316 313/358/316 314/360/316
f 292/338/317 291/352/317 306/359/317 307/361/317
f 300/337/318 299/336/318 314/360/318 315/362/318
f 293/339/319 292/338/319 307/361/319 308/363/319
f 301/340/320 300/337/320 315/362/320 316/364/320
f 294/341/321 293/339/321 308/363/321 309/365/321
f 287/343/322 9/366/322 302/367/322
f 16/368/323 301/340/323 316/364/323
f 295/345/324 294/341/324 309/365/324 310/369/324
f 288/346/325 287/343/325 302/367/325 303/353/325
f 296/347/326 295/345/326 310/369/326 311/355/326
f 308/363/327 307/361/327 322/370/327 323/371/327
f 316/364/328 315/362/328 330/372/328 331/373/328
f 309/365/329 308/363/329 323/371/329 324/374/329
f 302/367/330 9/375/330 317/376/330
f 16/377/331 316/364/331 331/373/331
f 310/369/332 309/365/332 324/374/332 325/378/332
f 303/353/333 302/367/333 317/376/333 318/379/333
f 311/355/334 310/369/334 325/378/334 326/380/334
f 304/354/335 303/353/335 318/379/335 319/381/335
f 312/356/336 311/355/336 326/380/336 327/382/336
f 305/357/337 304/354/337 319/381/337 320/383/337
f 313/358/338 312/356/338 327/382/338 328/384/338
f 306/359/339 305/357/339 320/383/339 321/385/339
f 314/360/340 313/358/340 328/384/340 329/386/340
f 307/361/341 306/359/341 321/385/341 322/370/341
f 315/362/342 314/360/342 329/386/342 330/372/342
f 327/382/343 326/380/343 341/387/343 342/388/343
f 320/383/344 319/381/344 334/389/344 335/390/344
f 328/384/345 327/382/345 342/388/345 343/391/345
f 321/385/346 320/383/346 335/390/346 336/392/346
f 329/386/347 328/384/347 343/391/347 344/393/347
f 322/370/348 321/385/348 336/392/348 337/394/348
f 330/372/349 329/386/349 344/393/349 345/395/349
f 323/371/350 322/370/350 337/394/350 338/396/350
f 331/373/351 330/372/351 345/395/351 346/397/351
f 324/374/352 323/371/352 338/396/352 339/398/352
f 317/376/353 9/399/353 332/400/353
f 16/401/354 331/373/354 346/397/354
f 325/378/355 324/374/355 339/398/355 340/402/355
f 318/379/356 317/376/356 332/400/356 333/403/356
f 326/380/357 325/378/357 340/402/357 341/387/357
f 319/381/358 318/379/358 333/403/358 334/389/358
f 346/397/359 345/395/359 360/404/359 361/405/359
f 339/398/360 338/396/360 353/406/360 354/407/360
f 332/400/361 9/408/361 347/409/361
f 16/410/362 346/397/362 361/405/362
f 340/402/363 339/398/363 354/407/363 355/411/363
f 333/403/364 332/400/364 347/409/364 348/412/364
f 341/387/365 340/402/365 355/411/365 356/413/365
f 334/389/366 333/403/366 348/412/366 349/414/366
f 342/388/367 341/387/367 356/413/367 357/415/367
f 335/390/368 334/389/368 349/414/368 350/416/368
f 343/391/369 342/388/369 357/415/369 358/417/369
f 336/392/370 335/390/370 350/416/370 351/418/370
f 344/393/371 343/391/371 358/417/371 359/419/371
f 337/394/372 336/392/372 351/418/372 352/420/372
f 345/395/373 344/393/373 359/419/373 360/404/373
f 338/396/374 337/394/374 352/420/374 353/406/374
f 350/416/375 349/414/375 364/421/375 365/422/375
f 358/417/376 357/415/376 372/423/376 373/424/376
f 351/418/377 350/416/377 365/422/377 366/425/377
f 359/419/378 358/417/378 373/424/378 374/426/378
f 352/420/379 351/418/379 366/425/379 367/427/379
f 360/404/380 359/419/380 374/426/380 375/428/380
f 353/406/381 352/420/381 367/427/381 368/429/381
f 361/405/382 360/404/382 375/428/382 376/430/382
f 354/407/383 353/406/383 368/429/383 369/431/383
f 347/409/384 9/432/384 362/433/384
f 16/434/385 361/405/385 376/430/385
f 355/411/386 354/407/386 369/431/386 370/435/386
f 348/412/387 347/409/387 362/433/387 363/436/387
f 356/413/388 355/411/388 370/435/388 371/437/388
f 349/414/389 348/412/389 363/436/389 364/421/389
f 357/415/390 356/413/390 371/437/390 372/423/390
f 369/438/391 368/439/391 383/440/391 384/441/391
f 362/442/392 9/443/392 377/444/392
f 16/445/393 376/446/393 391/447/393
f 370/448/394 369/438/394 384/441/394 385/449/394
f 363/450/395 362/442/395 377/444/395 378/451/395
f 371/452/396 370/448/396 385/449/396 386/453/396
f 364/454/397 363/450/397 378/451/397 379/455/397
f 372/456/398 371/452/398 386/453/398 387/457/398
f 365/458/399 364/454/399 379/455/399 380/459/399
f 373/460/400 372/456/400 387/457/400 388/461/400
f 366/462/401 365/458/401 380/459/401 381/463/401
f 374/464/402 373/460/402 388/461/402 389/465/402
f 367/466/403 366/462/403 381/463/403 382/467/403
f 375/468/404 374/464/404 389/465/404 390/469/404
f 368/439/405 367/466/405 382/467/405 383/440/405
f 376/446/406 375/468/406 390/469/406 391/447/406
f 388/461/407 387/457/407 402/470/407 403/471/407
f 381/463/408 380/459/408 395/472/408 396/473/408
f 389/465/409 388/461/409 403/471/409 404/474/409
f 382/467/410 381/463/410 396/473/410 397/475/410
f 390/469/411 389/465/411 404/474/411 405/476/411
f 383/440/412 382/467/412 397/475/412 398/477/412
f 391/447/413 390/469/413 405/476/413 406/478/413
f 384/441/414 383/440/414 398/477/414 399/479/414
f 377/444/415 9/480/415 392/481/415
f 16/482/416 391/447/416 406/478/416
f 385/449/417 384/441/417 399/479/417 400/483/417
f 378/451/418 377/444/418 392/481/418 393/484/418
f 386/453/419 385/449/419 400/483/419 401/485/419
f 379/455/420 378/451/420 393/484/420 394/486/420
f 387/457/421 386/453/421 401/485/421 402/470/421
f 380/459/422 379/455/422 394/486/422 395/472/422
f 16/487/423 406/478/423 421/488/423
f 400/483/424 399/479/424 414/489/424 415/490/424
f 393/484/425 392/481/425 407/491/425 408/492/425
f 401/485/426 400/483/426 415/490/426 416/493/426
f 394/486/427 393/484/427 408/492/427 409/494/427
f 402/470/428 401/485/428 416/493/428 417/495/428
f 395/472/429 394/486/429 409/494/429 410/496/429
f 403/471/430 402/470/430 417/495/430 418/497/430
f 396/473/431 395/472/431 410/496/431 411/498/431
f 404/474/432 403/471/432 418/497/432 419/499/432
f 397/475/433 396/473/433 411/498/433 412/500/433
f 405/476/434 404/474/434 419/499/434 420/501/434
f 398/477/435 397/475/435 412/500/435 413/502/435
f 406/478/436 405/476/436 420/501/436 421/488/436
f 399/479/437 398/477/437 413/502/437 414/489/437
f 392/481/438 9/503/438 407/491/438
f 419/499/439 418/497/439 433/504/439 434/505/439
f 412/500/440 411/498/440 426/506/440 427/507/440
f 420/501/441 419/499/441 434/505/441 435/508/441
f 413/502/442 412/500/442 427/507/442 428/509/442
f 421/488/443 420/501/443 435/508/443 436/510/443
f 414/489/444 413/502/444 428/509/444 429/511/444
f 407/491/445 9/512/445 422/513/445
f 16/514/446 421/488/446 436/510/446
f 415/490/447 414/489/447 429/511/447 430/515/447
f 408/492/448 407/491/448 422/513/448 423/516/448
f 416/493/449 415/490/449 430/515/449 431/517/449
f 409/494/450 408/492/450 423/516/450 424/518/450
f 417/495/451 416/493/451 431/517/451 432/519/451
f 410/496/452 409/494/452 424/518/452 425/520/452
f 418/497/453 417/495/453 432/519/453 433/504/453
f 411/498/454 410/496/454 425/520/454 426/506/454
f 423/516/455 422/513/455 437/521/455 438/522/455
f 431/517/456 430/515/456 445/523/456 446/524/456
f 424/518/457 423/516/457 438/522/457 439/525/457
f 432/519/458 431/517/458 446/524/458 447/526/458
f 425/520/459 424/518/459 439/525/459 440/527/459
f 433/504/460 432/519/460 447/526/460 448/528/460
f 426/506/461 425/520/461 440/527/461 441/529/461
f 434/505/462 433/504/462 448/528/462 449/530/462
f 427/507/463 426/506/463 441/529/463 442/531/463
f 435/508/464 434/505/464 449/530/464 450/532/464
f 428/509/465 427/507/465 442/531/465 443/533/465
f 436/510/466 435/508/466 450/532/466 451/534/466
f 429/511/467 428/509/467 443/533/467 444/535/467
f 422/513/468 9/536/468 437/521/468
f 16/537/469 436/510/469 451/534/469
f 430/515/470 429/511/470 444/535/470 445/523/470
f 442/531/471 441/529/471 456/538/471 457/539/471
f 450/532/472 449/530/472 464/540/472 465/541/472
f 443/533/473 442/531/473 457/539/473 458/542/473
f 451/534/474 450/532/474 465/541/474 466/543/474
f 444/535/475 443/533/475 458/542/475 459/544/475
f 437/521/476 9/545/476 452/546/476
f 16/547/477 451/534/477 466/543/477
f 445/523/478 444/535/478 459/544/478 460/548/478
f 438/522/479 437/521/479 452/546/479 453/549/479
f 446/524/480 445/523/480 460/548/480 461/550/480
f 439/525/481 438/522/481 453/549/481 454/551/481
f 447/526/482 446/524/482 461/550/482 462/552/482
f 440/527/483 439/525/483 454/551/483 455/553/483
f 448/528/484 447/526/484 462/552/484 463/554/484
f 441/529/485 440/527/485 455/553/485 456/538/485
f 449/530/486 448/528/486 463/554/486 464/540/486
f 461/550/487 460/548/487 475/555/487 476/556/487
f 454/551/488 453/549/488 468/557/488 469/558/488
f 462/552/489 461/550/489 476/556/489 477/559/489
f 455/553/490 454/551/490 469/558/490 470/560/490
f 463/554/491 462/552/491 477/559/491 478/561/491
f 456/538/492 455/553/492 470/560/492 471/562/492
f 464/540/493 463/554/493 478/561/493 479/563/493
f 457/539/494 456/538/494 471/562/494 472/564/494
f 465/541/495 464/540/495 479/563/495 480/565/495
f 458/542/496 457/539/496 472/564/496 473/566/496
f 466/543/497 465/541/497 480/565/497 481/567/497
f 459/544/498 458/542/498 473/566/498 474/568/498
f 452/546/499 9/569/499 467/570/499
f 16/571/500 466/543/500 481/567/500
f 460/548/501 459/544/501 474/568/501 475/555/501
f 453/549/502 452/546/502 467/570/502 468/557/502
f 480/565/503 479/563/503 488/20/503 489/19/503
f 473/566/504 472/564/504 485/15/504 12/23/504
f 481/567/505 480/565/505 489/19/505 490/25/505
f 474/568/506 473/566/506 12/23/506 13/27/506
f 467/570/507 9/572/507 482/29/507
f 16/573/508 481/567/508 490/25/508
f 475/555/509 474/568/509 13/27/509 14/33/509
f 468/557/510 467/570/510 482/29/510 483/35/510
f 476/556/511 475/555/511 14/33/511 486/37/511
f 469/558/512 468/557/512 483/35/512 10/39/512
f 477/559/513 476/556/513 486/37/513 15/41/513
f 470/560/514 469/558/514 10/39/514 484/43/514
f 478/561/515 477/559/515 15/41/515 487/45/515
f 471/562/516 470/560/516 484/43/516 11/16/516
f 479/563/517 478/561/517 487/45/517 488/20/517
f 472/564/518 471/562/518 11/16/518 485/15/518
